<svg width="31" height="31" viewBox="0 0 31 31" fill="none" xmlns="http://www.w3.org/2000/svg">
<path d="M4.9375 7.66667C4.9375 11.3486 7.87563 14.3333 11.5 14.3333C15.1244 14.3333 18.0625 11.3486 18.0625 7.66667C18.0625 3.98477 15.1244 1 11.5 1C7.87563 1 4.9375 3.98477 4.9375 7.66667Z" stroke="white" stroke-width="2" stroke-linecap="round" stroke-linejoin="round"/>
<path d="M14 18.5234C13.1988 18.3991 12.3615 18.3333 11.5 18.3333C5.70101 18.3333 1 21.318 1 24.9999" stroke="white" stroke-width="2" stroke-linecap="round" stroke-linejoin="round"/>
<path d="M28.6825 20.0522L28.3895 19.8901C28.3439 19.8649 28.3216 19.8523 28.2996 19.8392C28.081 19.7091 27.8968 19.5293 27.7624 19.3142C27.7489 19.2925 27.7361 19.2698 27.71 19.2249C27.684 19.1801 27.6708 19.1574 27.6587 19.135C27.5381 18.9112 27.4729 18.6618 27.469 18.4079C27.4686 18.3824 27.4687 18.3563 27.4696 18.3045L27.4753 17.9662C27.4845 17.4248 27.4891 17.1532 27.4125 16.9096C27.3445 16.6931 27.2308 16.4937 27.0789 16.3246C26.9072 16.1333 26.6696 15.9969 26.1938 15.7243L25.7986 15.498C25.3241 15.2262 25.0868 15.0902 24.8349 15.0384C24.6121 14.9926 24.3821 14.9947 24.1601 15.0443C23.9095 15.1002 23.6752 15.2397 23.2067 15.5184L23.2041 15.5197L22.9209 15.6883C22.8761 15.7149 22.8535 15.7283 22.831 15.7407C22.6083 15.8638 22.3597 15.9319 22.105 15.94C22.0794 15.9408 22.0532 15.9408 22.001 15.9408C21.9491 15.9408 21.9219 15.9408 21.8963 15.94C21.6411 15.9318 21.3919 15.8634 21.1689 15.7398C21.1464 15.7274 21.1242 15.7138 21.0793 15.6871L20.7943 15.517C20.3227 15.2356 20.0866 15.0946 19.8346 15.0384C19.6116 14.9887 19.3809 14.9873 19.1572 15.0338C18.9047 15.0862 18.6673 15.2231 18.1926 15.497L18.1905 15.498L17.8002 15.7231L17.7959 15.7257C17.3254 15.9972 17.0896 16.1332 16.9194 16.3237C16.7683 16.4927 16.6554 16.6917 16.5878 16.9076C16.5114 17.1516 16.5155 17.4238 16.5247 17.9677L16.5304 18.3055C16.5313 18.3567 16.5328 18.3821 16.5324 18.4073C16.5286 18.6616 16.4625 18.9115 16.3416 19.1357C16.3296 19.1579 16.3167 19.1801 16.291 19.2244C16.2652 19.2687 16.2528 19.2907 16.2394 19.3121C16.1044 19.5284 15.9193 19.7092 15.6994 19.8396C15.6776 19.8525 15.6547 19.8649 15.6097 19.8897L15.3203 20.0491C14.8389 20.3143 14.5982 20.447 14.4231 20.6359C14.2682 20.803 14.1511 21.0012 14.0797 21.217C13.9989 21.461 13.999 21.7346 14.0003 22.2817L14.0013 22.7289C14.0025 23.2724 14.0042 23.544 14.0852 23.7863C14.1568 24.0007 14.2729 24.1977 14.427 24.3638C14.6011 24.5515 14.8394 24.6834 15.3172 24.9476L15.604 25.1062C15.6528 25.1332 15.6773 25.1465 15.7009 25.1606C15.9188 25.2911 16.1024 25.4714 16.2363 25.6865C16.2508 25.7097 16.2646 25.7338 16.2924 25.782C16.3198 25.8296 16.3339 25.8535 16.3465 25.8773C16.4639 26.0982 16.5268 26.3437 16.5311 26.5935C16.5315 26.6205 16.5311 26.6478 16.5302 26.7026L16.5247 27.0268C16.5154 27.5726 16.5114 27.8458 16.5882 28.0905C16.6562 28.307 16.7698 28.5063 16.9217 28.6755C17.0934 28.8668 17.3314 29.0031 17.8072 29.2757L18.2023 29.502C18.6768 29.7738 18.9139 29.9096 19.1658 29.9614C19.3887 30.0072 19.6188 30.0055 19.8408 29.9559C20.0918 29.8999 20.3269 29.7599 20.7967 29.4804L21.0798 29.3118C21.1246 29.2852 21.1473 29.2718 21.1698 29.2594C21.3925 29.1363 21.6408 29.0679 21.8955 29.0598C21.9212 29.0589 21.9473 29.0589 21.9995 29.0589C22.0518 29.0589 22.0779 29.0589 22.1036 29.0598C22.3589 29.0679 22.6088 29.1366 22.8318 29.2602C22.8514 29.271 22.8711 29.2828 22.9056 29.3034L23.2067 29.483C23.6783 29.7645 23.914 29.905 24.166 29.9612C24.3889 30.011 24.6199 30.013 24.8435 29.9665C25.096 29.9141 25.3339 29.7769 25.8083 29.5032L26.2045 29.2746C26.6752 29.003 26.9113 28.8669 27.0816 28.6763C27.2326 28.5073 27.3457 28.3083 27.4133 28.0925C27.4891 27.8502 27.4846 27.5802 27.4755 27.0441L27.4696 26.6945C27.4687 26.6433 27.4686 26.6179 27.469 26.5927C27.4728 26.3383 27.5378 26.0883 27.6587 25.8641C27.6706 25.8419 27.6836 25.8196 27.7093 25.7754C27.735 25.7311 27.7484 25.709 27.7617 25.6876C27.8968 25.4714 28.082 25.2904 28.3019 25.16C28.3234 25.1473 28.3455 25.1351 28.3895 25.1108L28.391 25.1102L28.6804 24.9508C29.1618 24.6855 29.403 24.5527 29.5781 24.3638C29.733 24.1967 29.8499 23.9988 29.9213 23.783C30.0016 23.5404 30.001 23.2684 29.9997 22.7277L29.9987 22.2709C29.9974 21.7274 29.9968 21.4559 29.9158 21.2135C29.8442 20.9991 29.7274 20.8021 29.5734 20.636C29.3994 20.4485 29.1608 20.3165 28.6839 20.0528L28.6825 20.0522Z" stroke="white" stroke-linecap="round" stroke-linejoin="round"/>
<path d="M18.799 22.5001C18.799 24.2575 20.2323 25.6822 22.0003 25.6822C23.7683 25.6822 25.2015 24.2575 25.2015 22.5001C25.2015 20.7426 23.7683 19.3179 22.0003 19.3179C20.2323 19.3179 18.799 20.7426 18.799 22.5001Z" stroke="white" stroke-linecap="round" stroke-linejoin="round"/>
</svg>
