<svg width="32" height="32" viewBox="0 0 32 32" fill="none" xmlns="http://www.w3.org/2000/svg">
<path d="M24.7884 8.50357C24.6982 8.48854 24.593 8.48854 24.5029 8.50357C22.4293 8.42844 20.7764 6.73046 20.7764 4.62678C20.7764 2.47803 22.5044 0.75 24.6531 0.75C26.8019 0.75 28.5299 2.49305 28.5299 4.62678C28.5149 6.73046 26.862 8.42844 24.7884 8.50357Z" fill="#D9D9D9" fill-opacity="0.2" stroke="white" stroke-width="1.5" stroke-linecap="round" stroke-linejoin="round"/>
<path d="M23.2409 19.4428C25.2995 19.7884 27.5685 19.4277 29.1612 18.3609C31.2799 16.9484 31.2799 14.6343 29.1612 13.2219C27.5534 12.155 25.2544 11.7944 23.1958 12.155" fill="#D9D9D9" fill-opacity="0.2"/>
<path d="M23.2409 19.4428C25.2995 19.7884 27.5685 19.4277 29.1612 18.3609C31.2799 16.9484 31.2799 14.6343 29.1612 13.2219C27.5534 12.155 25.2544 11.7944 23.1958 12.155" stroke="white" stroke-width="1.5" stroke-linecap="round" stroke-linejoin="round"/>
<path d="M6.71176 8.50357C6.80192 8.48854 6.9071 8.48854 6.99726 8.50357C9.07089 8.42844 10.7238 6.73046 10.7238 4.62678C10.7238 2.47803 8.99576 0.75 6.847 0.75C4.69824 0.75 2.97021 2.49305 2.97021 4.62678C2.98524 6.73046 4.63813 8.42844 6.71176 8.50357Z" fill="#D9D9D9" fill-opacity="0.2" stroke="white" stroke-width="1.5" stroke-linecap="round" stroke-linejoin="round"/>
<path d="M8.25938 19.4428C6.20078 19.7884 3.93182 19.4277 2.33903 18.3609C0.220324 16.9484 0.220324 14.6343 2.33903 13.2219C3.94684 12.155 6.24586 11.7944 8.30446 12.155" fill="#D9D9D9" fill-opacity="0.2"/>
<path d="M8.25938 19.4428C6.20078 19.7884 3.93182 19.4277 2.33903 18.3609C0.220324 16.9484 0.220324 14.6343 2.33903 13.2219C3.94684 12.155 6.24586 11.7944 8.30446 12.155" stroke="white" stroke-width="1.5" stroke-linecap="round" stroke-linejoin="round"/>
<path d="M15.7728 19.7282C15.6826 19.7132 15.5774 19.7132 15.4873 19.7282C13.4136 19.653 11.7607 17.9551 11.7607 15.8514C11.7607 13.7026 13.4888 11.9746 15.6375 11.9746C17.7863 11.9746 19.5143 13.7177 19.5143 15.8514C19.4993 17.9551 17.8464 19.6681 15.7728 19.7282Z" fill="#D9D9D9" fill-opacity="0.2" stroke="white" stroke-width="1.5" stroke-linecap="round" stroke-linejoin="round"/>
<path d="M11.4001 24.4612C9.28136 25.8737 9.28136 28.1877 11.4001 29.6002C13.8043 31.208 17.7412 31.208 20.1454 29.6002C22.2641 28.1877 22.2641 25.8737 20.1454 24.4612C17.7562 22.8684 13.8043 22.8684 11.4001 24.4612Z" fill="#D9D9D9" fill-opacity="0.2" stroke="white" stroke-width="1.5" stroke-linecap="round" stroke-linejoin="round"/>
</svg>
