<svg width="32" height="28" viewBox="0 0 32 28" fill="none" xmlns="http://www.w3.org/2000/svg">
<path d="M0.75 7.51117V22.3209C0.75 25.2128 2.8048 26.4001 5.30099 24.9693L8.87785 22.9297C9.65411 22.4883 10.9479 22.4427 11.7546 22.8536L19.7454 26.8567C20.5521 27.2524 21.8459 27.222 22.6221 26.7806L29.2127 23.0058C30.0499 22.5188 30.75 21.3316 30.75 20.3574V5.54769C30.75 2.65576 28.6952 1.46855 26.199 2.89929L22.6221 4.93887C21.8459 5.38027 20.5521 5.42593 19.7454 5.01497L11.7546 1.02715C10.9479 0.631408 9.65411 0.661849 8.87785 1.10325L2.28729 4.87798C1.43493 5.36505 0.75 6.55226 0.75 7.51117Z" fill="#D9D9D9" fill-opacity="0.2" stroke="white" stroke-width="1.5" stroke-linecap="round" stroke-linejoin="round"/>
<path d="M10.2935 1.75781V21.5447V1.75781Z" fill="#D9D9D9" fill-opacity="0.2"/>
<path d="M10.2935 1.75781V21.5447" stroke="white" stroke-width="1.5" stroke-linecap="round" stroke-linejoin="round"/>
<path d="M21.2065 5.74609V26.1114V5.74609Z" fill="#D9D9D9" fill-opacity="0.2"/>
<path d="M21.2065 5.74609V26.1114" stroke="white" stroke-width="1.5" stroke-linecap="round" stroke-linejoin="round"/>
</svg>
