<svg width="14" height="14" viewBox="0 0 14 14" fill="none" xmlns="http://www.w3.org/2000/svg">
<path d="M13 2.17238C13 1.76203 12.9997 1.55671 12.918 1.39998C12.8461 1.26211 12.7318 1.1501 12.5906 1.07986C12.4302 1 12.2197 1 11.7997 1H2.19971C1.77967 1 1.56986 1 1.40942 1.07986C1.2683 1.1501 1.15365 1.26211 1.08175 1.39998C1 1.55671 1 1.76203 1 2.17238V2.71257C1 2.89178 1 2.98145 1.02072 3.06577C1.0391 3.14053 1.06947 3.21195 1.1106 3.2775C1.15696 3.35142 1.22193 3.41489 1.35156 3.54153L5.14862 7.25097C5.27832 7.37768 5.34283 7.4407 5.38921 7.51464C5.43033 7.58019 5.46112 7.65185 5.47949 7.72662C5.5 7.81008 5.5 7.89869 5.5 8.07427V11.5589C5.5 12.1869 5.5 12.5012 5.63541 12.6903C5.75365 12.8554 5.93605 12.9656 6.14014 12.9951C6.37385 13.0288 6.66153 12.8885 7.23657 12.6076L7.83657 12.3145C8.07737 12.1969 8.19747 12.1379 8.28544 12.0502C8.36322 11.9726 8.42274 11.8794 8.45898 11.7767C8.49998 11.6606 8.5 11.5288 8.5 11.2658V8.07973C8.5 7.90052 8.5 7.81094 8.52072 7.72662C8.5391 7.65185 8.56947 7.58019 8.6106 7.51464C8.65667 7.44119 8.721 7.37834 8.84899 7.25331L8.85156 7.25097L12.6486 3.54153C12.7783 3.41481 12.8428 3.35145 12.8892 3.2775C12.9303 3.21195 12.9611 3.14053 12.9795 3.06577C13 2.98231 13 2.8936 13 2.71802V2.17238Z" stroke="#868B93" stroke-width="2" stroke-linecap="round" stroke-linejoin="round"/>
</svg>
