<svg width="32" height="34" viewBox="0 0 32 34" fill="none" xmlns="http://www.w3.org/2000/svg">
<path d="M0.75 12.0746V21.4093C0.75 24.839 0.75 24.839 4.08333 27.023L13.25 32.1676C14.6333 32.9441 16.8833 32.9441 18.25 32.1676L27.4167 27.023C30.75 24.839 30.75 24.839 30.75 21.4254V12.0746C30.75 8.66102 30.75 8.66102 27.4167 6.477L18.25 1.33241C16.8833 0.555865 14.6333 0.555865 13.25 1.33241L4.08333 6.477C0.75 8.66102 0.75 8.66102 0.75 12.0746Z" fill="#D9D9D9" fill-opacity="0.2" stroke="white" stroke-width="1.5" stroke-linecap="round" stroke-linejoin="round"/>
<path d="M15.75 21.75C18.5114 21.75 20.75 19.5114 20.75 16.75C20.75 13.9886 18.5114 11.75 15.75 11.75C12.9886 11.75 10.75 13.9886 10.75 16.75C10.75 19.5114 12.9886 21.75 15.75 21.75Z" fill="#D9D9D9" fill-opacity="0.2" stroke="white" stroke-width="1.5" stroke-linecap="round" stroke-linejoin="round"/>
</svg>
